<?xml version="1.0" encoding="UTF-8" standalone="no"?>
<!DOCTYPE svg PUBLIC "-//W3C//DTD SVG 1.1//EN" "http://www.w3.org/Graphics/SVG/1.1/DTD/svg11.dtd">
<svg width="100%" height="100%" viewBox="0 0 973 481" version="1.1" xmlns="http://www.w3.org/2000/svg" xmlns:xlink="http://www.w3.org/1999/xlink" xml:space="preserve" xmlns:serif="http://www.serif.com/" style="fill-rule:evenodd;clip-rule:evenodd;stroke-linejoin:round;stroke-miterlimit:2;">
    <g transform="matrix(4.16667,0,0,4.16667,486.45,174.412)">
        <g transform="matrix(1,0,0,1,-99.58,-15.765)">
            <clipPath id="_clip1">
                <rect x="0" y="0" width="199.16" height="31.53"/>
            </clipPath>
            <g clip-path="url(#_clip1)">
                <g>
                    <path d="M1.39,30.14L1.39,25.39C4.473,26.492 7.727,27.037 11,27C15.347,27 17.52,25.547 17.52,22.64C17.52,20.533 16.187,19.477 13.52,19.47L8.7,19.47C2.9,19.45 0,16.797 0,11.51C0,5.703 4.13,2.797 12.39,2.79C15.444,2.779 18.481,3.248 21.39,4.18L21.39,8.94C18.509,7.875 15.461,7.337 12.39,7.35C7.63,7.35 5.25,8.737 5.25,11.51C5.25,13.63 6.4,14.68 8.7,14.68L13.54,14.68C19.713,14.68 22.797,17.323 22.79,22.61C22.79,28.557 18.867,31.53 11.02,31.53C7.757,31.578 4.506,31.109 1.39,30.14Z" style="fill:rgb(16,25,47);fill-rule:nonzero;"/>
                    <path d="M29,3L34.65,3L42.65,16.66L50.08,3L55.53,3L45.11,21.42L45.11,31.33L39.85,31.33L39.85,21.42L29,3Z" style="fill:rgb(16,25,47);fill-rule:nonzero;"/>
                    <path d="M63.52,31.33L63.52,3L69,3L78.58,24.5L88,3L93.25,3L93.25,31.33L88.39,31.33L88.39,11.59L80.71,31.33L76.23,31.33L68.38,11.59L68.38,31.33L63.52,31.33Z" style="fill:rgb(16,25,47);fill-rule:nonzero;"/>
                    <path d="M124.66,30.14C121.995,31.107 119.175,31.578 116.34,31.53C106.16,31.53 101.073,26.607 101.08,16.76C101.08,7.427 106.167,2.76 116.34,2.76C119.174,2.718 121.993,3.188 124.66,4.15L124.66,8.94C122.159,7.868 119.462,7.326 116.74,7.35C109.933,7.35 106.53,10.487 106.53,16.76C106.53,23.587 109.933,27 116.74,27C119.46,27.022 122.156,26.485 124.66,25.42L124.66,30.14Z" style="fill:rgb(16,25,47);fill-rule:nonzero;"/>
                    <path d="M173.09,31.33L173.09,3L178.34,3L194.1,23.25L194.1,3L199.16,3L199.16,31.33L193.9,31.33L178.15,10.64L178.15,31.33L173.09,31.33Z" style="fill:rgb(16,25,47);fill-rule:nonzero;"/>
                    <path d="M146,31.38L161.76,31.38L161.76,20.16L163.61,22L167.18,18.43L148.78,0L130.38,18.41L134,22L135.81,20.18L135.81,31.38L140.88,31.38L140.88,15.11L148.88,7.11L156.88,15.11L156.88,26.33L151.38,26.33L151.38,21L146,21L146,31.38Z" style="fill:rgb(16,25,47);fill-rule:nonzero;"/>
                </g>
            </g>
        </g>
    </g>
    <g transform="matrix(1,0,0,1,45.4139,50)">
        <text x="103.683px" y="312.745px" style="font-family:'Arial-BoldItalicMT', 'Arial', sans-serif;font-weight:700;font-style:italic;font-size:150px;fill:rgb(16,25,47);">PHP<tspan x="406.539px 448.214px " y="312.745px 312.745px "> S</tspan>DK</text>
    </g>
</svg>
