<?xml version="1.0" encoding="UTF-8" standalone="no"?>
<!DOCTYPE svg PUBLIC "-//W3C//DTD SVG 1.1//EN" "http://www.w3.org/Graphics/SVG/1.1/DTD/svg11.dtd">
<svg width="100%" height="100%" viewBox="0 0 1453 351" version="1.1" xmlns="http://www.w3.org/2000/svg" xmlns:xlink="http://www.w3.org/1999/xlink" xml:space="preserve" xmlns:serif="http://www.serif.com/" style="fill-rule:evenodd;clip-rule:evenodd;stroke-linejoin:round;stroke-miterlimit:2;">
    <g transform="matrix(1,0,0,1,78.9681,-2591.06)">
        <g transform="matrix(-1.09435,0,0,0.990123,1138.57,2770.61)">
            <clipPath id="_clip1">
                <rect id="header-decoration" serif:id="header decoration" x="-28.072" y="-30.919" width="1068.48" height="208.684"/>
            </clipPath>
            <g clip-path="url(#_clip1)">
                <g transform="matrix(-0.913417,0,0,1.00957,1040.41,-2796.13)">
                    <path d="M-79,2913C-79,2913 34.814,2814.54 204,2852C373.186,2889.46 468.626,2968.3 648,2913C827.374,2857.7 876.087,2717.01 1057,2786.9C1237.91,2856.8 1223.19,3001.18 1341,2913C1458.81,2824.82 1227,2590 1227,2590L-79,2674L-79,2913Z" style="fill:rgb(205,205,205);"/>
                </g>
            </g>
        </g>
    </g>
</svg>
