<?xml version="1.0" encoding="UTF-8" standalone="no"?><!DOCTYPE svg PUBLIC "-//W3C//DTD SVG 1.1//EN" "http://www.w3.org/Graphics/SVG/1.1/DTD/svg11.dtd"><svg width="100%" height="100%" viewBox="0 0 2940 2940" version="1.1" xmlns="http://www.w3.org/2000/svg" xmlns:xlink="http://www.w3.org/1999/xlink" xml:space="preserve" xmlns:serif="http://www.serif.com/" style="fill-rule:evenodd;clip-rule:evenodd;stroke-miterlimit:10;"><path d="M2269.99,1469.99c-0,-441.667 -358.334,-800 -800,-800c-441.667,-0 -800,358.333 -800,800c-0,441.666 358.333,800 800,800c441.666,-0 800,-358.334 800,-800Z" style="fill:none;fill-rule:nonzero;stroke:#fe7950;stroke-width:133.33px;"/><path d="M1446.08,1095.2l23.917,508.125l23.875,-508.125c0.016,-0.361 0.024,-0.723 0.024,-1.084c0,-13.121 -10.796,-23.917 -23.916,-23.917c-0.078,-0 -0.156,0 -0.233,0.001c-13.035,0.123 -23.692,10.88 -23.692,23.916c0,0.361 0.009,0.723 0.025,1.084Z" style="fill:none;fill-rule:nonzero;stroke:#fe7950;stroke-width:133.33px;stroke-linecap:round;stroke-linejoin:round;stroke-miterlimit:4;"/><path d="M1469.99,1936.28c-45.716,0 -83.334,-37.618 -83.334,-83.333c0,-45.715 37.618,-83.333 83.334,-83.333c45.715,-0 83.333,37.618 83.333,83.333c0,45.715 -37.618,83.333 -83.333,83.333Z" style="fill:#fe7950;fill-rule:nonzero;"/></svg>