<?xml version="1.0" encoding="UTF-8" standalone="no"?><!DOCTYPE svg PUBLIC "-//W3C//DTD SVG 1.1//EN" "http://www.w3.org/Graphics/SVG/1.1/DTD/svg11.dtd"><svg width="100%" height="100%" viewBox="0 0 2134 2134" version="1.1" xmlns="http://www.w3.org/2000/svg" xmlns:xlink="http://www.w3.org/1999/xlink" xml:space="preserve" xmlns:serif="http://www.serif.com/" style="fill-rule:evenodd;clip-rule:evenodd;stroke-linejoin:round;stroke-miterlimit:2;"><path d="M1066.67,200c-477.875,0 -866.667,388.792 -866.667,866.667c0,477.875 388.792,866.666 866.667,866.666c477.875,0 866.666,-388.791 866.666,-866.666c0,-477.875 -388.791,-866.667 -866.666,-866.667Zm-0,1332.96c-45.716,0 -83.334,-37.618 -83.334,-83.333c0,-45.715 37.618,-83.333 83.334,-83.333c45.715,-0 83.333,37.618 83.333,83.333c0,45.715 -37.618,83.333 -83.333,83.333Zm90.5,-838.125l-23.917,508.334c0,36.572 -30.094,66.666 -66.667,66.666c-36.572,0 -66.666,-30.094 -66.666,-66.666l-23.917,-508.084l0,-0.208c-0.056,-1.294 -0.083,-2.589 -0.083,-3.885c-0,-49.692 40.89,-90.583 90.583,-90.583c49.693,0 90.583,40.891 90.583,90.583c0,1.296 -0.027,2.591 -0.083,3.885l0.167,-0.042Z" style="fill:#fe7950;fill-rule:nonzero;"/></svg>