<?xml version="1.0" encoding="UTF-8" standalone="no"?><!DOCTYPE svg PUBLIC "-//W3C//DTD SVG 1.1//EN" "http://www.w3.org/Graphics/SVG/1.1/DTD/svg11.dtd"><svg width="100%" height="100%" viewBox="0 0 1896 463" version="1.1" xmlns="http://www.w3.org/2000/svg" xmlns:xlink="http://www.w3.org/1999/xlink" xml:space="preserve" xmlns:serif="http://www.serif.com/" style="fill-rule:evenodd;clip-rule:evenodd;stroke-linejoin:round;stroke-miterlimit:2;"><g><path d="M811.059,374.445c0.696,0 278.543,-0.003 279.234,-0.008c24.641,-0.203 46.264,-4.026 64.871,-11.469c19.129,-7.651 34.033,-18.571 44.714,-32.758c10.68,-14.187 16.02,-30.925 16.02,-50.213l-0,-0.239c-0,-20.404 -6.615,-36.584 -19.846,-48.539c-13.231,-11.956 -34.113,-20.643 -62.647,-26.063l-47.822,-9.086c-7.97,-1.594 -14.187,-3.308 -18.65,-5.141c-4.464,-1.833 -7.572,-3.985 -9.326,-6.456c-1.753,-2.471 -2.63,-5.46 -2.63,-8.967l0,-0.239c0,-4.144 1.236,-7.651 3.706,-10.521c2.471,-2.869 5.938,-5.021 10.402,-6.456c4.463,-1.434 9.644,-2.152 15.542,-2.152c10.521,0 18.571,2.312 24.15,6.935c5.579,4.622 8.847,9.006 9.803,13.151l0.479,2.152l88.948,-0l0,-1.674c0,-14.347 -4.423,-27.936 -13.27,-40.768c-8.847,-12.833 -51.58,-26.282 -68.479,-36.943c-1.869,-1.179 -52.123,-8.856 -89.958,-6.677c-0.508,0.029 -1.531,0.086 -1.531,0.086c0,0 -226.243,-0.104 -227.297,-0.104c-25.505,0 -47.503,3.587 -65.994,10.76c-18.491,7.173 -32.678,17.415 -42.561,30.726c-9.883,13.31 -14.825,29.37 -14.825,48.18l-0,0.239c-0,13.869 3.029,26.223 9.086,37.062c6.058,10.84 15.064,19.926 27.02,27.259c11.955,7.332 26.62,12.673 43.996,16.02l47.822,9.086c10.839,2.073 18.491,4.663 22.954,7.771c4.463,3.109 6.695,7.373 6.695,12.793l0,0.239c0,3.826 -1.235,7.054 -3.706,9.684c-2.471,2.63 -5.978,4.662 -10.521,6.097c-4.543,1.435 -10.003,2.152 -16.379,2.152c-10.999,0 -19.447,-1.993 -25.346,-5.978c-5.898,-3.985 -9.962,-8.767 -12.194,-14.346l-0.717,-1.913l-94.688,-0l0.239,2.152c1.754,15.781 12.673,77.503 12.673,77.503c0,0 29.809,-11.868 48.778,-4.455c18.97,7.412 42.721,11.118 71.255,11.118Z" style="fill:#008dff;fill-rule:nonzero;"/><path d="M865.578,271.354c0.091,0 225.357,0.001 225.447,0.002c12.667,0.123 22.906,8.896 22.906,19.684c-0,10.711 -10.093,19.435 -22.633,19.681c-0.181,0.004 -225.538,0.005 -225.72,0.005c-12.791,0 -23.176,-8.821 -23.176,-19.686c0,-10.865 10.385,-19.686 23.176,-19.686Z" style="fill:url(#_Linear1);"/><path d="M1017.28,155.219c-0.087,0 -217.421,0.001 -217.508,0.002c-12.221,0.123 -22.099,8.896 -22.099,19.684c0,10.711 9.737,19.435 21.836,19.681c0.174,0.004 217.596,0.005 217.771,0.005c12.341,0 22.36,-8.821 22.36,-19.686c0,-10.865 -10.019,-19.686 -22.36,-19.686Z" style="fill:url(#_Linear2);"/><path d="M811.059,374.445c0.696,0 1.389,-0.003 2.08,-0.008c24.64,-0.203 46.264,-4.026 64.871,-11.469c19.128,-7.651 34.033,-18.571 44.713,-32.758c10.68,-14.187 16.021,-30.925 16.021,-50.213l-0,-0.239c-0,-20.404 -6.616,-36.584 -19.847,-48.539c-13.23,-11.956 -34.113,-20.643 -62.646,-26.063l-47.822,-9.086c-7.97,-1.594 -14.187,-3.308 -18.651,-5.141c-4.463,-1.833 -7.571,-3.985 -9.325,-6.456c-1.753,-2.471 -2.63,-5.46 -2.63,-8.967l-0,-0.239c-0,-4.144 1.235,-7.651 3.706,-10.521c2.471,-2.869 5.938,-5.021 10.401,-6.456c4.464,-1.434 9.644,-2.152 15.542,-2.152c10.521,0 18.571,2.312 24.15,6.935c5.58,4.622 8.848,9.006 9.804,13.151l0.478,2.152l88.949,-0l-0,-1.674c-0,-14.347 -4.424,-27.936 -13.271,-40.768c-8.847,-12.833 -22.396,-23.313 -40.648,-31.443c-17.301,-7.706 -39.005,-11.76 -65.113,-12.162c-1.436,-0.022 -2.886,-0.033 -4.349,-0.033c-25.505,0 -47.503,3.587 -65.994,10.76c-18.491,7.173 -32.678,17.415 -42.561,30.726c-9.883,13.31 -14.825,29.37 -14.825,48.18l-0,0.239c-0,13.869 3.029,26.223 9.086,37.062c6.058,10.84 15.064,19.926 27.02,27.259c11.955,7.332 26.62,12.673 43.996,16.02l47.822,9.086c10.839,2.073 18.491,4.663 22.954,7.771c4.463,3.109 6.695,7.373 6.695,12.793l0,0.239c0,3.826 -1.235,7.054 -3.706,9.684c-2.471,2.63 -5.978,4.662 -10.521,6.097c-4.543,1.435 -10.003,2.152 -16.379,2.152c-10.999,0 -19.447,-1.993 -25.346,-5.978c-5.898,-3.985 -9.962,-8.767 -12.194,-14.346l-0.717,-1.913l-94.688,-0l0.239,2.152c1.754,15.781 12.673,77.503 12.673,77.503c0,0 29.809,-11.868 48.778,-4.455c18.97,7.412 42.721,11.118 71.255,11.118Z" style="fill:#fff;fill-rule:nonzero;"/><path d="M171.441,377.315c31.085,-0 58.383,-5.938 81.895,-17.814c23.513,-11.876 42.124,-28.255 55.832,-49.137c13.709,-20.882 21.201,-44.873 22.477,-71.972l0.239,-5.021l-97.079,-0l-0.478,3.586c-1.434,11.318 -4.902,21.321 -10.401,30.009c-5.5,8.687 -12.673,15.462 -21.52,20.324c-8.847,4.862 -19.089,7.293 -30.725,7.293c-14.188,-0 -26.382,-3.985 -36.584,-11.956c-10.202,-7.97 -18.053,-19.407 -23.552,-34.312c-5.5,-14.904 -8.25,-32.638 -8.25,-53.202l0,-0.478c0,-20.563 2.75,-38.218 8.25,-52.963c5.499,-14.745 13.35,-26.063 23.552,-33.953c10.202,-7.891 22.317,-11.836 36.344,-11.836c11.637,-0 21.999,2.511 31.085,7.532c9.086,5.021 16.419,11.915 21.998,20.683c5.579,8.767 8.847,18.73 9.803,29.888l0.239,2.631l97.079,-0l-0.239,-5.5c-1.116,-26.461 -8.648,-50.093 -22.596,-70.896c-13.948,-20.802 -32.718,-37.181 -56.31,-49.137c-23.593,-11.955 -50.612,-17.933 -81.059,-17.933c-35.547,0 -66.113,7.293 -91.698,21.879c-25.585,14.585 -45.271,35.467 -59.06,62.646c-13.789,27.179 -20.683,59.578 -20.683,97.198l0,0.478c0,37.62 6.894,70.02 20.683,97.198c13.789,27.179 33.515,48.101 59.18,62.767c25.664,14.665 56.19,21.998 91.578,21.998Z" style="fill:#fff;fill-rule:nonzero;"/><rect x="346.948" y="0" width="98.035" height="367.75" style="fill:#fff;fill-rule:nonzero;"/><path d="M517.194,371.576c11.317,0 21.878,-1.474 31.682,-4.424c9.803,-2.949 18.291,-7.093 25.465,-12.433c7.173,-5.34 12.433,-11.517 15.781,-18.531l4.782,-0l0,31.562l96.122,0l0,-182.918c0,-19.607 -4.702,-36.305 -14.107,-50.094c-9.405,-13.788 -23.074,-24.309 -41.008,-31.562c-17.933,-7.253 -39.732,-10.88 -65.396,-10.88c-25.664,0 -47.941,3.547 -66.831,10.641c-18.89,7.093 -58.701,-2.993 -58.701,-2.993c-0,-0 -2.391,60.578 -3.826,77.953l-0.239,3.109l87.514,-0l0.478,-1.196c2.232,-5.579 6.297,-9.883 12.195,-12.912c5.898,-3.028 13.709,-4.543 23.432,-4.543c9.405,0 16.818,1.993 22.237,5.978c5.42,3.985 8.13,9.485 8.13,16.499l0,87.514c0,6.216 -1.753,11.836 -5.26,16.857c-3.507,5.021 -8.249,9.006 -14.227,11.955c-5.978,2.949 -12.633,4.424 -19.966,4.424c-9.245,-0 -16.618,-2.112 -22.117,-6.337c-5.5,-4.224 -8.25,-9.763 -8.25,-16.618l0,-0.478c0,-6.536 2.87,-11.836 8.608,-15.901c5.739,-4.065 13.709,-6.416 23.911,-7.053l85.362,-5.5l0,-51.887l-101.143,5.978c-23.752,1.435 -43.837,5.5 -60.256,12.195c-16.419,6.695 -28.852,15.9 -37.301,27.617c-8.448,11.716 -12.673,25.704 -12.673,41.963l0,0.479c0,16.259 3.547,30.526 10.641,42.8c7.093,12.275 17.096,21.799 30.008,28.574c12.912,6.775 27.896,10.162 44.953,10.162Z" style="fill:#fff;fill-rule:nonzero;"/><path d="M1186.7,462.916c28.055,-0 52.325,-3.627 72.809,-10.88c20.483,-7.253 37.699,-19.049 51.647,-35.388c13.948,-16.339 25.147,-38.058 33.595,-65.157l78.667,-252.5l-103.534,0l-46.626,216.394l14.107,-29.41l-21.998,-0l15.542,29.41l-46.626,-216.394l-108.795,0l89.427,268.759l-0,4.782c-0.16,5.58 -3.786,10.242 -10.88,13.988c-7.093,3.746 -17.176,5.619 -30.247,5.619l-19.129,0l0,70.777l32.041,-0Z" style="fill:#fff;fill-rule:nonzero;"/><path d="M1384.2,367.75l98.035,0l0,-151.834c0,-8.768 1.435,-16.499 4.304,-23.194c2.869,-6.695 7.014,-11.955 12.434,-15.781c5.42,-3.826 12.035,-5.739 19.846,-5.739c12.434,0 21.56,3.946 27.378,11.836c5.818,7.891 8.727,18.85 8.727,32.878l0,151.834l98.035,0l0,-173.593c0,-32.36 -7.572,-57.426 -22.715,-75.2c-15.144,-17.774 -37.54,-26.661 -67.19,-26.661c-18.65,0 -34.591,4.503 -47.822,13.51c-13.23,9.006 -22.635,20.922 -28.215,35.747l-4.782,-0l0,-42.562l-98.035,0l0,268.759Z" style="fill:#fff;fill-rule:nonzero;"/><path d="M1768.69,374.445c25.186,0 46.985,-4.343 65.397,-13.031c18.411,-8.688 32.917,-21.161 43.518,-37.421c10.6,-16.259 16.618,-35.707 18.052,-58.342l-0.239,-0.479l-88.231,0.239l-0.478,0c-1.276,12.275 -4.982,21.401 -11.119,27.378c-6.137,5.978 -14.865,8.967 -26.182,8.967c-9.565,0 -17.336,-2.391 -23.314,-7.173c-5.977,-4.782 -10.401,-12.235 -13.27,-22.357c-2.869,-10.122 -4.304,-23.074 -4.304,-38.855l-0,-0.478c-0,-15.782 1.435,-28.654 4.304,-38.617c2.869,-9.963 7.293,-17.335 13.27,-22.117c5.978,-4.782 13.749,-7.174 23.314,-7.174c11.317,0 20.045,3.228 26.182,9.684c6.137,6.456 9.923,16.061 11.358,28.813l0.239,0.239l88.709,0c-1.594,-23.911 -7.571,-44.155 -17.933,-60.734c-10.361,-16.578 -24.748,-29.171 -43.159,-37.779c-18.411,-8.608 -40.449,-12.912 -66.114,-12.912c-30.765,0 -56.509,5.261 -77.232,15.781c-20.723,10.521 -36.305,26.183 -46.746,46.985c-10.441,20.803 -15.662,46.746 -15.662,77.831l0,0.478c0,31.084 5.221,57.107 15.662,78.069c10.441,20.962 26.023,36.703 46.746,47.224c20.723,10.521 46.467,15.781 77.232,15.781Z" style="fill:#fff;fill-rule:nonzero;"/><path d="M1768.69,374.445c25.186,0 46.985,-4.343 65.397,-13.031c18.411,-8.688 32.917,-21.161 43.518,-37.421c10.6,-16.259 16.618,-35.707 18.052,-58.342l-0.239,-0.479l-88.231,0.239l-0.478,0c-1.276,12.275 -4.982,21.401 -11.119,27.378c-6.137,5.978 -14.865,8.967 -26.182,8.967c-9.565,0 -17.336,-2.391 -23.314,-7.173c-5.977,-4.782 -10.401,-12.235 -13.27,-22.357c-2.869,-10.122 -4.304,-23.074 -4.304,-38.855l-0,-0.478c-0,-15.782 1.435,-28.654 4.304,-38.617c2.869,-9.963 7.293,-17.335 13.27,-22.117c5.978,-4.782 13.749,-7.174 23.314,-7.174c11.317,0 20.045,3.228 26.182,9.684c6.137,6.456 9.923,16.061 11.358,28.813l0.239,0.239l88.709,0c-1.594,-23.911 -7.571,-44.155 -17.933,-60.734c-10.361,-16.578 -24.748,-29.171 -43.159,-37.779c-18.411,-8.608 -40.449,-12.912 -66.114,-12.912c-30.765,0 -56.509,5.261 -77.232,15.781c-20.723,10.521 -36.305,26.183 -46.746,46.985c-10.441,20.803 -15.662,46.746 -15.662,77.831l0,0.478c0,31.084 5.221,57.107 15.662,78.069c10.441,20.962 26.023,36.703 46.746,47.224c20.723,10.521 46.467,15.781 77.232,15.781Z" style="fill:#fff;fill-rule:nonzero;"/></g><defs><linearGradient id="_Linear1" x1="0" y1="0" x2="1" y2="0" gradientUnits="userSpaceOnUse" gradientTransform="matrix(271.528,0,0,305.502,842.402,291.04)"><stop offset="0" style="stop-color:#008dff;stop-opacity:1"/><stop offset="0.6" style="stop-color:#0074d3;stop-opacity:1"/><stop offset="0.81" style="stop-color:#003b6c;stop-opacity:1"/><stop offset="1" style="stop-color:#000;stop-opacity:1"/></linearGradient><linearGradient id="_Linear2" x1="0" y1="0" x2="1" y2="0" gradientUnits="userSpaceOnUse" gradientTransform="matrix(-261.967,0,0,305.502,1039.64,174.905)"><stop offset="0" style="stop-color:#008dff;stop-opacity:1"/><stop offset="0.6" style="stop-color:#0074d3;stop-opacity:1"/><stop offset="0.81" style="stop-color:#003b6c;stop-opacity:1"/><stop offset="1" style="stop-color:#000;stop-opacity:1"/></linearGradient></defs></svg>