<?xml version="1.0" encoding="UTF-8" standalone="no"?><!DOCTYPE svg PUBLIC "-//W3C//DTD SVG 1.1//EN"
        "http://www.w3.org/Graphics/SVG/1.1/DTD/svg11.dtd">
<svg width="100%" height="100%" viewBox="0 0 2053 2212" version="1.1" xmlns="http://www.w3.org/2000/svg" xml:space="preserve" style="fill-rule:evenodd;clip-rule:evenodd;stroke-linejoin:round;stroke-miterlimit:2;">
    <g>
        <path id="classyncIconLayer3"
              d="M942.097,2211.69c170.812,0 320.821,-32.696 450.025,-98.087c129.205,-65.392 231.473,-155.581 306.806,-270.565c75.333,-114.984 116.503,-247.085 123.511,-396.301l1.313,-27.649l-533.46,-0l-2.628,19.749c-7.884,62.32 -26.936,117.398 -57.157,165.235c-30.22,47.837 -69.639,85.142 -118.254,111.913c-48.616,26.771 -104.897,40.156 -168.842,40.156c-77.961,0 -144.972,-21.943 -201.033,-65.83c-56.062,-43.887 -99.203,-106.866 -129.424,-188.935c-30.22,-82.069 -45.331,-179.718 -45.331,-292.946l0,-2.634c0,-113.229 15.111,-210.439 45.331,-291.63c30.221,-81.191 73.362,-143.511 129.424,-186.959c56.061,-43.449 122.634,-65.173 199.719,-65.173c63.945,0 120.883,13.825 170.812,41.474c49.93,27.649 90.225,65.611 120.883,113.887c30.659,48.276 48.616,103.135 53.872,164.577l1.314,14.482l533.461,0l-1.314,-30.282c-6.132,-145.705 -47.521,-275.831 -124.168,-390.376c-76.647,-114.546 -179.791,-204.734 -309.434,-270.564c-129.642,-65.831 -278.117,-98.747 -445.426,-98.747c-195.34,0 -363.305,40.157 -503.897,120.471c-140.592,80.313 -248.773,195.298 -324.544,344.953c-75.771,149.655 -113.656,328.056 -113.656,535.204l-0,2.633c-0,207.148 37.885,385.549 113.656,535.204c75.771,149.656 184.171,264.859 325.201,345.612c141.03,80.752 308.776,121.128 503.24,121.128Z"
              style="fill:#82cfff;fill-rule:nonzero;"/>
        <path id="classyncIconLayer2"
              d="M1010.79,2165.81c170.813,0 320.821,-32.696 450.026,-98.088c129.204,-65.391 231.473,-155.58 306.805,-270.564c75.333,-114.984 116.503,-247.085 123.511,-396.301l1.314,-27.649l-533.461,-0l-2.628,19.749c-7.883,62.32 -26.936,117.398 -57.156,165.235c-30.221,47.837 -69.639,85.141 -118.255,111.913c-48.616,26.771 -104.897,40.156 -168.842,40.156c-77.96,0 -144.971,-21.943 -201.033,-65.83c-56.062,-43.888 -99.203,-106.866 -129.423,-188.935c-30.221,-82.069 -45.331,-179.718 -45.331,-292.947l-0,-2.633c-0,-113.229 15.11,-210.439 45.331,-291.63c30.22,-81.191 73.361,-143.511 129.423,-186.959c56.062,-43.449 122.635,-65.173 199.719,-65.173c63.946,0 120.883,13.825 170.813,41.474c49.93,27.648 90.224,65.611 120.883,113.887c30.658,48.276 48.615,103.135 53.871,164.577l1.314,14.482l533.461,0l-1.314,-30.282c-6.132,-145.705 -47.521,-275.831 -124.168,-390.376c-76.646,-114.546 -179.791,-204.734 -309.433,-270.565c-129.642,-65.83 -278.118,-98.746 -445.427,-98.746c-195.339,0 -363.305,40.157 -503.897,120.471c-140.592,80.313 -248.773,195.298 -324.544,344.953c-75.77,149.655 -113.656,328.056 -113.656,535.204l0,2.633c0,207.148 37.886,385.549 113.656,535.204c75.771,149.655 184.171,264.859 325.201,345.612c141.03,80.752 308.777,121.128 503.24,121.128Z"
              style="fill:#55b5ff;fill-rule:nonzero;"/>
        <path id="classyncIconLayer1"
              d="M1079.48,2096.98c170.812,0 320.821,-32.696 450.025,-98.088c129.204,-65.392 231.473,-155.58 306.806,-270.564c75.332,-114.985 116.503,-247.085 123.51,-396.301l1.314,-27.649l-533.46,-0l-2.628,19.749c-7.884,62.32 -26.936,117.398 -57.157,165.235c-30.221,47.837 -69.639,85.141 -118.255,111.913c-48.616,26.771 -104.896,40.156 -168.841,40.156c-77.961,0 -144.972,-21.943 -201.034,-65.83c-56.061,-43.888 -99.202,-106.866 -129.423,-188.935c-30.221,-82.069 -45.331,-179.718 -45.331,-292.947l0,-2.633c0,-113.229 15.11,-210.439 45.331,-291.63c30.221,-81.191 73.362,-143.511 129.423,-186.96c56.062,-43.448 122.635,-65.172 199.72,-65.172c63.945,0 120.882,13.824 170.812,41.473c49.93,27.649 90.224,65.612 120.883,113.888c30.659,48.276 48.616,103.134 53.872,164.577l1.314,14.482l533.46,0l-1.314,-30.282c-6.131,-145.705 -47.521,-275.831 -124.167,-390.376c-76.647,-114.546 -179.791,-204.734 -309.434,-270.565c-129.642,-65.83 -278.118,-98.746 -445.426,-98.746c-195.34,0 -363.305,40.157 -503.897,120.47c-140.592,80.314 -248.773,195.298 -324.544,344.954c-75.771,149.655 -113.656,328.056 -113.656,535.204l-0,2.633c-0,207.147 37.885,385.549 113.656,535.204c75.771,149.655 184.171,264.859 325.201,345.612c141.03,80.752 308.776,121.128 503.24,121.128Z"
              style="fill:#008dff;fill-rule:nonzero;"/>
        <path d="M1171.06,2005.21c170.812,-0 320.821,-32.696 450.025,-98.088c129.204,-65.392 231.473,-155.58 306.806,-270.564c75.332,-114.985 116.503,-247.085 123.51,-396.301l1.314,-27.649l-533.461,-0l-2.627,19.749c-7.884,62.32 -26.936,117.398 -57.157,165.235c-30.221,47.837 -69.639,85.141 -118.255,111.912c-48.616,26.772 -104.896,40.157 -168.841,40.157c-77.961,0 -144.972,-21.943 -201.034,-65.831c-56.061,-43.887 -99.202,-106.865 -129.423,-188.934c-30.221,-82.069 -45.331,-179.718 -45.331,-292.947l-0,-2.633c-0,-113.229 15.11,-210.439 45.331,-291.63c30.221,-81.192 73.362,-143.511 129.423,-186.96c56.062,-43.448 122.635,-65.172 199.72,-65.172c63.945,-0 120.882,13.824 170.812,41.473c49.93,27.649 90.224,65.612 120.883,113.887c30.659,48.276 48.616,103.135 53.872,164.577l1.313,14.483l533.461,0l-1.314,-30.282c-6.131,-145.705 -47.521,-275.831 -124.167,-390.376c-76.647,-114.546 -179.791,-204.734 -309.434,-270.565c-129.642,-65.831 -278.118,-98.746 -445.426,-98.746c-195.34,0 -363.306,40.157 -503.897,120.47c-140.592,80.314 -248.774,195.298 -324.544,344.953c-75.771,149.656 -113.656,328.057 -113.656,535.205l-0,2.633c-0,207.147 37.885,385.549 113.656,535.204c75.77,149.655 184.171,264.859 325.201,345.611c141.029,80.753 308.776,121.129 503.24,121.129Z"
              style="fill-rule:nonzero;"/>
    </g>
</svg>