<?xml version="1.0" encoding="UTF-8" standalone="no"?>
<!DOCTYPE svg PUBLIC "-//W3C//DTD SVG 1.1//EN" "http://www.w3.org/Graphics/SVG/1.1/DTD/svg11.dtd">
<svg width="100%" height="100%" viewBox="0 0 689 112" version="1.1" xmlns="http://www.w3.org/2000/svg" xmlns:xlink="http://www.w3.org/1999/xlink" xml:space="preserve" xmlns:serif="http://www.serif.com/" style="fill-rule:evenodd;clip-rule:evenodd;stroke-linejoin:round;stroke-miterlimit:2;">
    <g transform="matrix(1,0,0,1,-45.6457,-88.6174)">
        <g id="devcat" transform="matrix(1,0,0,1,7.55845,-3.46447)">
            <g transform="matrix(1,0,0,1,217.017,-16.4961)">
                <g transform="matrix(144,0,0,144,-189.898,218)">
                    <path d="M0.076,-0.716L0.405,-0.716C0.47,-0.716 0.522,-0.707 0.562,-0.689C0.602,-0.672 0.635,-0.647 0.661,-0.614C0.687,-0.581 0.706,-0.543 0.717,-0.499C0.729,-0.455 0.735,-0.409 0.735,-0.36C0.735,-0.284 0.726,-0.225 0.709,-0.182C0.691,-0.14 0.667,-0.105 0.636,-0.076C0.605,-0.048 0.572,-0.029 0.537,-0.02C0.488,-0.007 0.444,-0 0.405,-0L0.076,-0L0.076,-0.716ZM0.297,-0.554L0.297,-0.163L0.352,-0.163C0.398,-0.163 0.431,-0.168 0.45,-0.178C0.47,-0.188 0.485,-0.206 0.496,-0.232C0.507,-0.257 0.513,-0.299 0.513,-0.356C0.513,-0.432 0.5,-0.484 0.476,-0.512C0.451,-0.54 0.41,-0.554 0.353,-0.554L0.297,-0.554Z" style="fill:white;fill-rule:nonzero;"/>
                </g>
                <g transform="matrix(144,0,0,144,-77.8906,218)">
                    <path d="M0.636,-0.21L0.237,-0.21C0.241,-0.178 0.25,-0.154 0.263,-0.139C0.282,-0.116 0.307,-0.105 0.338,-0.105C0.358,-0.105 0.376,-0.11 0.394,-0.12C0.405,-0.126 0.416,-0.137 0.429,-0.152L0.625,-0.134C0.595,-0.082 0.558,-0.045 0.516,-0.022C0.474,0 0.413,0.012 0.334,0.012C0.265,0.012 0.211,0.002 0.172,-0.017C0.132,-0.037 0.1,-0.067 0.074,-0.11C0.048,-0.152 0.035,-0.201 0.035,-0.258C0.035,-0.339 0.061,-0.405 0.113,-0.455C0.165,-0.505 0.237,-0.53 0.328,-0.53C0.402,-0.53 0.461,-0.519 0.504,-0.497C0.547,-0.474 0.58,-0.442 0.602,-0.399C0.625,-0.356 0.636,-0.301 0.636,-0.232L0.636,-0.21ZM0.434,-0.305C0.43,-0.344 0.419,-0.371 0.403,-0.388C0.386,-0.404 0.364,-0.413 0.336,-0.413C0.305,-0.413 0.28,-0.4 0.261,-0.375C0.249,-0.359 0.241,-0.336 0.238,-0.305L0.434,-0.305Z" style="fill:white;fill-rule:nonzero;"/>
                </g>
                <g transform="matrix(144,0,0,144,14.4297,218)">
                    <path d="M0.001,-0.519L0.208,-0.519L0.309,-0.19L0.413,-0.519L0.613,-0.519L0.393,-0L0.217,-0L0.001,-0.519Z" style="fill:white;fill-rule:nonzero;"/>
                </g>
                <g transform="matrix(144,0,0,144,102.391,218)">
                    <path d="M0.55,-0.292L0.744,-0.234C0.731,-0.18 0.71,-0.134 0.682,-0.098C0.654,-0.061 0.619,-0.034 0.578,-0.015C0.536,0.003 0.484,0.013 0.419,0.013C0.342,0.013 0.278,0.001 0.229,-0.021C0.179,-0.044 0.137,-0.084 0.101,-0.141C0.065,-0.198 0.047,-0.271 0.047,-0.359C0.047,-0.478 0.079,-0.569 0.142,-0.633C0.205,-0.696 0.294,-0.728 0.409,-0.728C0.499,-0.728 0.57,-0.71 0.622,-0.673C0.673,-0.637 0.712,-0.581 0.737,-0.505L0.542,-0.462C0.535,-0.484 0.528,-0.5 0.52,-0.51C0.508,-0.527 0.493,-0.54 0.475,-0.549C0.457,-0.558 0.437,-0.563 0.415,-0.563C0.364,-0.563 0.326,-0.542 0.299,-0.502C0.279,-0.472 0.269,-0.425 0.269,-0.361C0.269,-0.281 0.281,-0.227 0.305,-0.198C0.329,-0.168 0.363,-0.153 0.407,-0.153C0.449,-0.153 0.481,-0.165 0.503,-0.189C0.524,-0.213 0.54,-0.247 0.55,-0.292Z" style="fill:white;fill-rule:nonzero;"/>
                </g>
                <g transform="matrix(144,0,0,144,214.398,218)">
                    <path d="M0.241,-0.351L0.051,-0.371C0.058,-0.404 0.069,-0.43 0.082,-0.449C0.096,-0.468 0.115,-0.485 0.141,-0.499C0.159,-0.509 0.184,-0.516 0.216,-0.522C0.248,-0.528 0.282,-0.53 0.319,-0.53C0.379,-0.53 0.427,-0.527 0.463,-0.52C0.499,-0.514 0.529,-0.5 0.553,-0.479C0.57,-0.464 0.583,-0.443 0.593,-0.416C0.603,-0.389 0.608,-0.364 0.608,-0.339L0.608,-0.11C0.608,-0.086 0.609,-0.067 0.613,-0.053C0.616,-0.039 0.622,-0.021 0.633,-0L0.446,-0C0.439,-0.013 0.434,-0.024 0.432,-0.031C0.429,-0.038 0.427,-0.049 0.425,-0.063C0.399,-0.038 0.373,-0.021 0.347,-0.01C0.312,0.005 0.271,0.012 0.225,0.012C0.163,0.012 0.116,-0.003 0.084,-0.031C0.052,-0.06 0.036,-0.095 0.036,-0.137C0.036,-0.177 0.047,-0.209 0.07,-0.234C0.093,-0.26 0.136,-0.279 0.198,-0.291C0.273,-0.306 0.321,-0.316 0.343,-0.323C0.365,-0.329 0.389,-0.336 0.414,-0.346C0.414,-0.371 0.409,-0.388 0.398,-0.397C0.388,-0.407 0.371,-0.412 0.345,-0.412C0.313,-0.412 0.288,-0.407 0.272,-0.396C0.259,-0.388 0.249,-0.373 0.241,-0.351ZM0.414,-0.246C0.386,-0.236 0.358,-0.228 0.328,-0.22C0.288,-0.209 0.262,-0.199 0.251,-0.188C0.24,-0.178 0.235,-0.166 0.235,-0.152C0.235,-0.136 0.24,-0.123 0.251,-0.114C0.262,-0.104 0.278,-0.099 0.299,-0.099C0.321,-0.099 0.342,-0.104 0.361,-0.115C0.38,-0.125 0.394,-0.139 0.402,-0.154C0.41,-0.17 0.414,-0.19 0.414,-0.214L0.414,-0.246Z" style="fill:white;fill-rule:nonzero;"/>
                </g>
                <g transform="matrix(144,0,0,144,307.984,218)">
                    <path d="M0.3,-0.716L0.3,-0.519L0.409,-0.519L0.409,-0.374L0.3,-0.374L0.3,-0.189C0.3,-0.167 0.302,-0.153 0.306,-0.146C0.313,-0.134 0.324,-0.129 0.34,-0.129C0.355,-0.129 0.375,-0.133 0.402,-0.142L0.417,-0.004C0.367,0.006 0.321,0.012 0.279,0.012C0.229,0.012 0.193,0.005 0.169,-0.007C0.146,-0.02 0.129,-0.039 0.117,-0.065C0.106,-0.091 0.101,-0.133 0.101,-0.191L0.101,-0.374L0.027,-0.374L0.027,-0.519L0.101,-0.519L0.101,-0.614L0.3,-0.716Z" style="fill:white;fill-rule:nonzero;"/>
                </g>
            </g>
            <g transform="matrix(1,0,0,1,601.796,104.738)">
                <g transform="matrix(108,0,0,108,0,79.418)">
                    <path d="M0.125,-0.4C0.125,-0.368 0.13,-0.339 0.14,-0.313C0.15,-0.287 0.164,-0.267 0.182,-0.252C0.2,-0.237 0.219,-0.229 0.241,-0.229C0.263,-0.229 0.283,-0.237 0.301,-0.252C0.319,-0.267 0.333,-0.287 0.343,-0.313C0.353,-0.339 0.358,-0.368 0.358,-0.4C0.358,-0.432 0.353,-0.461 0.343,-0.487C0.333,-0.512 0.319,-0.533 0.301,-0.548C0.283,-0.563 0.263,-0.571 0.241,-0.571C0.219,-0.571 0.2,-0.563 0.182,-0.548C0.164,-0.533 0.15,-0.512 0.14,-0.487C0.13,-0.461 0.125,-0.432 0.125,-0.4ZM0.361,-0.682C0.361,-0.65 0.367,-0.621 0.377,-0.595C0.387,-0.569 0.401,-0.549 0.419,-0.534C0.437,-0.519 0.457,-0.511 0.479,-0.511C0.501,-0.511 0.521,-0.519 0.538,-0.534C0.556,-0.549 0.57,-0.569 0.581,-0.595C0.591,-0.621 0.596,-0.65 0.596,-0.682C0.596,-0.714 0.591,-0.743 0.581,-0.769C0.57,-0.794 0.556,-0.815 0.538,-0.83C0.521,-0.845 0.501,-0.853 0.479,-0.853C0.457,-0.853 0.437,-0.845 0.419,-0.83C0.401,-0.815 0.387,-0.794 0.377,-0.769C0.367,-0.743 0.361,-0.714 0.361,-0.682ZM0.681,-0.682C0.681,-0.65 0.686,-0.621 0.696,-0.595C0.706,-0.569 0.72,-0.549 0.738,-0.534C0.756,-0.519 0.776,-0.511 0.798,-0.511C0.82,-0.511 0.839,-0.519 0.857,-0.534C0.875,-0.549 0.889,-0.569 0.899,-0.595C0.91,-0.621 0.915,-0.65 0.915,-0.682C0.915,-0.714 0.91,-0.743 0.899,-0.769C0.889,-0.794 0.875,-0.815 0.857,-0.83C0.839,-0.845 0.82,-0.853 0.798,-0.853C0.776,-0.853 0.756,-0.845 0.738,-0.83C0.72,-0.815 0.706,-0.794 0.696,-0.769C0.686,-0.743 0.681,-0.714 0.681,-0.682ZM0.918,-0.4C0.918,-0.368 0.923,-0.339 0.934,-0.313C0.944,-0.287 0.958,-0.267 0.976,-0.252C0.993,-0.237 1.013,-0.229 1.035,-0.229C1.057,-0.229 1.077,-0.237 1.094,-0.252C1.112,-0.267 1.126,-0.287 1.136,-0.313C1.147,-0.339 1.152,-0.368 1.152,-0.4C1.152,-0.432 1.147,-0.461 1.136,-0.487C1.126,-0.512 1.112,-0.533 1.094,-0.548C1.077,-0.563 1.057,-0.571 1.035,-0.571C1.013,-0.571 0.993,-0.563 0.976,-0.548C0.958,-0.533 0.944,-0.512 0.934,-0.487C0.923,-0.461 0.918,-0.432 0.918,-0.4ZM0.271,-0.022C0.271,0.011 0.278,0.04 0.292,0.065C0.306,0.091 0.325,0.111 0.349,0.125C0.374,0.14 0.403,0.147 0.435,0.147C0.459,0.147 0.48,0.144 0.499,0.139C0.518,0.133 0.535,0.127 0.552,0.122C0.566,0.117 0.58,0.112 0.594,0.109C0.607,0.105 0.622,0.103 0.638,0.103C0.654,0.103 0.669,0.105 0.683,0.109C0.696,0.112 0.71,0.117 0.724,0.122C0.741,0.127 0.758,0.133 0.777,0.139C0.795,0.144 0.817,0.147 0.841,0.147C0.873,0.147 0.902,0.14 0.927,0.125C0.951,0.111 0.971,0.091 0.985,0.065C0.998,0.04 1.005,0.011 1.005,-0.022C1.005,-0.05 1,-0.074 0.991,-0.094C0.981,-0.114 0.969,-0.131 0.953,-0.146C0.938,-0.161 0.923,-0.175 0.907,-0.188C0.893,-0.199 0.881,-0.21 0.868,-0.22C0.856,-0.231 0.845,-0.244 0.836,-0.257C0.829,-0.268 0.822,-0.28 0.816,-0.291C0.81,-0.303 0.805,-0.314 0.799,-0.326C0.788,-0.351 0.776,-0.374 0.763,-0.397C0.751,-0.419 0.736,-0.437 0.716,-0.451C0.697,-0.465 0.671,-0.472 0.638,-0.472C0.605,-0.472 0.579,-0.465 0.56,-0.451C0.541,-0.437 0.525,-0.419 0.513,-0.397C0.501,-0.374 0.489,-0.351 0.477,-0.326C0.472,-0.315 0.466,-0.303 0.46,-0.292C0.454,-0.28 0.448,-0.269 0.44,-0.258C0.432,-0.245 0.421,-0.232 0.408,-0.221C0.396,-0.21 0.383,-0.199 0.37,-0.188C0.353,-0.175 0.338,-0.161 0.323,-0.146C0.308,-0.131 0.295,-0.114 0.286,-0.094C0.276,-0.074 0.271,-0.05 0.271,-0.022Z" style="fill:white;fill-rule:nonzero;"/>
                </g>
            </g>
        </g>
    </g>
</svg>
